<svg width="29" height="28" viewBox="0 0 29 28" fill="none" xmlns="http://www.w3.org/2000/svg">
<path d="M8.375 6.125C5.4875 6.125 3.125 8.4875 3.125 11.375C3.125 13.111 3.97987 14.6562 5.28537 15.6135C2.978 16.758 1.375 19.131 1.375 21.875H3.125C3.125 18.9665 5.4665 16.625 8.375 16.625C11.2835 16.625 13.625 18.9665 13.625 21.875H15.375C15.375 18.9665 17.7165 16.625 20.625 16.625C23.5335 16.625 25.875 18.9665 25.875 21.875H27.625C27.625 19.1301 26.022 16.758 23.7146 15.6135C24.383 15.127 24.927 14.4895 25.3025 13.753C25.6779 13.0165 25.874 12.2017 25.875 11.375C25.875 8.4875 23.5125 6.125 20.625 6.125C17.7375 6.125 15.375 8.4875 15.375 11.375C15.375 13.111 16.2299 14.6562 17.5354 15.6135C16.2568 16.2419 15.1986 17.2428 14.5 18.4844C13.8014 17.2428 12.7432 16.2419 11.4646 15.6135C12.133 15.127 12.677 14.4895 13.0525 13.753C13.4279 13.0165 13.624 12.2017 13.625 11.375C13.625 8.4875 11.2625 6.125 8.375 6.125ZM8.375 7.875C10.3201 7.875 11.875 9.42987 11.875 11.375C11.875 13.3201 10.3201 14.875 8.375 14.875C6.42987 14.875 4.875 13.3201 4.875 11.375C4.875 9.42987 6.42987 7.875 8.375 7.875ZM20.625 7.875C22.5701 7.875 24.125 9.42987 24.125 11.375C24.125 13.3201 22.5701 14.875 20.625 14.875C18.6799 14.875 17.125 13.3201 17.125 11.375C17.125 9.42987 18.6799 7.875 20.625 7.875Z" fill="#FFBB3C"/>
</svg>
