<svg width="29" height="28" viewBox="0 0 29 28" fill="none" xmlns="http://www.w3.org/2000/svg">
<rect x="0.5" width="28" height="28" rx="5" fill="black"/>
<path d="M12.1573 7.00033C12.1573 6.38149 12.4032 5.78799 12.8408 5.35041C13.2783 4.91282 13.8718 4.66699 14.4907 4.66699C15.1095 4.66699 15.703 4.91282 16.1406 5.35041C16.5782 5.78799 16.824 6.38149 16.824 7.00033C16.824 8.94516 16.0423 10.5003 14.4907 11.667H14.5M14.5 11.667L5.2005 16.833C4.83657 17.0351 4.53334 17.3309 4.32224 17.6897C4.11115 18.0485 3.99989 18.4572 4 18.8735V19.8337C4 20.4525 4.24583 21.046 4.68342 21.4836C5.121 21.9212 5.7145 22.167 6.33333 22.167H22.6667C23.2855 22.167 23.879 21.9212 24.3166 21.4836C24.7542 21.046 25 20.4525 25 19.8337V18.8735C25.0001 18.4572 24.8888 18.0485 24.6778 17.6897C24.4667 17.3309 24.1634 17.0351 23.7995 16.833L14.5 11.667Z" stroke="white" stroke-width="2.5" stroke-linecap="round" stroke-linejoin="round"/>
</svg>
