<svg width="25" height="25" viewBox="0 0 25 25" fill="none" xmlns="http://www.w3.org/2000/svg">
<path d="M20.8327 12.5003H10.9368M18.7494 15.6253L21.8744 12.5003L18.7494 9.37533M13.541 7.29199V6.25033C13.541 5.69779 13.3215 5.16789 12.9308 4.77719C12.5401 4.38649 12.0102 4.16699 11.4577 4.16699H6.24935C5.69681 4.16699 5.16691 4.38649 4.77621 4.77719C4.38551 5.16789 4.16602 5.69779 4.16602 6.25033V18.7503C4.16602 19.3029 4.38551 19.8328 4.77621 20.2235C5.16691 20.6142 5.69681 20.8337 6.24935 20.8337H11.4577C12.0102 20.8337 12.5401 20.6142 12.9308 20.2235C13.3215 19.8328 13.541 19.3029 13.541 18.7503V17.7087" stroke="black" stroke-width="2" stroke-linecap="round" stroke-linejoin="round"/>
</svg>
