<svg width="22" height="22" viewBox="0 0 22 22" fill="none" xmlns="http://www.w3.org/2000/svg">
<path d="M11.0007 1.83301C5.9379 1.83301 1.83398 5.93692 1.83398 10.9997C1.83398 16.0624 5.9379 20.1663 11.0007 20.1663C16.0634 20.1663 20.1673 16.0624 20.1673 10.9997C20.1673 5.93692 16.0634 1.83301 11.0007 1.83301Z" stroke="black" stroke-width="2" stroke-linecap="round" stroke-linejoin="round"/>
<path d="M3.91602 16.8172C3.91602 16.8172 5.95927 14.2083 11.0009 14.2083C16.0426 14.2083 18.0868 16.8172 18.0868 16.8172M11.0009 11C11.7303 11 12.4298 10.7103 12.9455 10.1945C13.4612 9.67882 13.7509 8.97935 13.7509 8.25C13.7509 7.52065 13.4612 6.82118 12.9455 6.30546C12.4298 5.78973 11.7303 5.5 11.0009 5.5C10.2716 5.5 9.57211 5.78973 9.05639 6.30546C8.54066 6.82118 8.25093 7.52065 8.25093 8.25C8.25093 8.97935 8.54066 9.67882 9.05639 10.1945C9.57211 10.7103 10.2716 11 11.0009 11Z" stroke="black" stroke-width="2" stroke-linecap="round" stroke-linejoin="round"/>
</svg>
