<svg width="23" height="22" viewBox="0 0 23 22" fill="none" xmlns="http://www.w3.org/2000/svg">
<path d="M7.83464 9.16667H6.0013C5.51507 9.16667 5.04876 9.35982 4.70494 9.70364C4.36112 10.0475 4.16797 10.5138 4.16797 11V17.4167C4.16797 17.9029 4.36112 18.3692 4.70494 18.713C5.04876 19.0568 5.51507 19.25 6.0013 19.25H17.0013C17.4875 19.25 17.9538 19.0568 18.2977 18.713C18.6415 18.3692 18.8346 17.9029 18.8346 17.4167V11C18.8346 10.5138 18.6415 10.0475 18.2977 9.70364C17.9538 9.35982 17.4875 9.16667 17.0013 9.16667H15.168M7.83464 9.16667V6.41667C7.83464 5.44421 8.22094 4.51158 8.90858 3.82394C9.59621 3.13631 10.5288 2.75 11.5013 2.75C12.4738 2.75 13.4064 3.13631 14.094 3.82394C14.7817 4.51158 15.168 5.44421 15.168 6.41667V9.16667M7.83464 9.16667H15.168M11.5013 12.8333V15.5833" stroke="#808080" stroke-width="2" stroke-linecap="round" stroke-linejoin="round"/>
</svg>
