<svg width="23" height="22" viewBox="0 0 23 22" fill="none" xmlns="http://www.w3.org/2000/svg">
<path d="M11.4987 20.1663C10.2306 20.1663 9.03898 19.9256 7.9237 19.444C6.80842 18.9625 5.83828 18.3095 5.01328 17.4851C4.18828 16.6607 3.53531 15.6906 3.05437 14.5747C2.57342 13.4588 2.33264 12.2671 2.33203 10.9997C2.33142 9.73223 2.5722 8.54056 3.05437 7.42467C3.53653 6.30879 4.1895 5.33865 5.01328 4.51426C5.83706 3.68987 6.8072 3.0369 7.9237 2.55534C9.0402 2.07379 10.2319 1.83301 11.4987 1.83301C12.7655 1.83301 13.9572 2.07379 15.0737 2.55534C16.1902 3.0369 17.1603 3.68987 17.9841 4.51426C18.8079 5.33865 19.4612 6.30879 19.9439 7.42467C20.4267 8.54056 20.6672 9.73223 20.6654 10.9997C20.6635 12.2671 20.4228 13.4588 19.943 14.5747C19.4633 15.6906 18.8103 16.6607 17.9841 17.4851C17.1579 18.3095 16.1878 18.9628 15.0737 19.4449C13.9596 19.9271 12.768 20.1676 11.4987 20.1663ZM10.582 18.2872V16.4997C10.0779 16.4997 9.64642 16.3203 9.2877 15.9616C8.92898 15.6029 8.74931 15.1711 8.7487 14.6663V13.7497L4.3487 9.34967C4.30287 9.62467 4.261 9.89967 4.22312 10.1747C4.18523 10.4497 4.16598 10.7247 4.16537 10.9997C4.16537 12.8483 4.77281 14.4677 5.9877 15.858C7.20259 17.2483 8.73403 18.058 10.582 18.2872ZM16.907 15.9497C17.5334 15.2622 18.011 14.4946 18.3398 13.647C18.6686 12.7994 18.8326 11.917 18.832 10.9997C18.832 9.50245 18.4159 8.13509 17.5835 6.89759C16.7512 5.66009 15.6396 4.76634 14.2487 4.21634V4.58301C14.2487 5.08717 14.0693 5.51892 13.7106 5.87826C13.3519 6.23759 12.9201 6.41695 12.4154 6.41634H10.582V8.24967C10.582 8.5094 10.494 8.72726 10.318 8.90326C10.142 9.07926 9.92448 9.16695 9.66537 9.16634H7.83203V10.9997H13.332C13.5918 10.9997 13.8096 11.0877 13.9856 11.2637C14.1616 11.4397 14.2493 11.6572 14.2487 11.9163V14.6663H15.1654C15.5626 14.6663 15.9216 14.7849 16.2424 15.022C16.5633 15.2591 16.7848 15.5683 16.907 15.9497Z" fill="#60C0DB"/>
</svg>
